<svg width="65" height="71" viewBox="0 0 65 71" fill="none" xmlns="http://www.w3.org/2000/svg">
<path d="M24 5C22.8954 5 22 5.89551 22 7V15H7C5.89545 15 5 15.8955 5 17V69C5 70.1045 5.89545 71 7 71H29C30.1046 71 31 70.1045 31 69V61H39V69C39 70.1045 39.8954 71 41 71H63C64.1046 71 65 70.1045 65 69V17C65 15.8955 64.1046 15 63 15H48V7C48 5.89551 47.1046 5 46 5H24Z" fill="#E4F0FD"/>
<path fill-rule="evenodd" clip-rule="evenodd" d="M18 10H3C1.34315 10 0 11.3431 0 13V65C0 66.6569 1.34315 68 3 68H25C26.6569 68 28 66.6569 28 65V56H26V65C26 65.5523 25.5523 66 25 66H3C2.44772 66 2 65.5523 2 65V13C2 12.4477 2.44772 12 3 12H18V10Z" fill="#131313"/>
<path fill-rule="evenodd" clip-rule="evenodd" d="M44 10H59C60.6569 10 62 11.3431 62 13V65C62 66.6569 60.6569 68 59 68H37C35.3431 68 34 66.6569 34 65V56H36V65C36 65.5523 36.4477 66 37 66H59C59.5523 66 60 65.5523 60 65V13C60 12.4477 59.5523 12 59 12H44V10Z" fill="#131313"/>
<rect x="18" y="1" width="26" height="56" rx="2" stroke="#131313" stroke-width="2"/>
<rect x="23" y="26" width="16" height="2" rx="1" fill="#131313"/>
<rect x="23" y="30" width="16" height="2" rx="1" fill="#131313"/>
<rect x="23" y="34" width="16" height="2" rx="1" fill="#131313"/>
<rect x="23" y="38" width="16" height="2" rx="1" fill="#131313"/>
<rect x="23" y="42" width="16" height="2" rx="1" fill="#131313"/>
<rect x="23" y="46" width="16" height="2" rx="1" fill="#131313"/>
<rect x="5" y="26" width="9" height="2" rx="1" fill="#131313"/>
<rect x="5" y="30" width="9" height="2" rx="1" fill="#131313"/>
<rect x="5" y="34" width="9" height="2" rx="1" fill="#131313"/>
<rect x="5" y="38" width="9" height="2" rx="1" fill="#131313"/>
<rect x="5" y="42" width="9" height="2" rx="1" fill="#131313"/>
<rect x="5" y="46" width="9" height="2" rx="1" fill="#131313"/>
<rect x="48" y="26" width="9" height="2" rx="1" fill="#131313"/>
<rect x="48" y="30" width="9" height="2" rx="1" fill="#131313"/>
<rect x="48" y="34" width="9" height="2" rx="1" fill="#131313"/>
<rect x="48" y="38" width="9" height="2" rx="1" fill="#131313"/>
<rect x="48" y="42" width="9" height="2" rx="1" fill="#131313"/>
<rect x="48" y="46" width="9" height="2" rx="1" fill="#131313"/>
<path d="M30.0489 10.927C30.3483 10.0057 31.6517 10.0057 31.9511 10.927L32.3471 12.1459C32.481 12.5579 32.8649 12.8369 33.2981 12.8369H34.5797C35.5484 12.8369 35.9512 14.0765 35.1675 14.6459L34.1307 15.3992C33.7802 15.6538 33.6335 16.1052 33.7674 16.5172L34.1634 17.7361C34.4628 18.6574 33.4083 19.4235 32.6246 18.8541L31.5878 18.1008C31.2373 17.8462 30.7627 17.8462 30.4122 18.1008L29.3754 18.8541C28.5917 19.4235 27.5372 18.6574 27.8366 17.7361L28.2326 16.5172C28.3665 16.1052 28.2198 15.6538 27.8693 15.3992L26.8325 14.6459C26.0488 14.0765 26.4516 12.8369 27.4203 12.8369H28.7019C29.1351 12.8369 29.519 12.5579 29.6529 12.1459L30.0489 10.927Z" stroke="black" stroke-width="2"/>
</svg>
