<svg width="60" height="40" viewBox="0 0 60 40" fill="none" xmlns="http://www.w3.org/2000/svg">
<rect x="5" y="5" width="55" height="35" rx="2" fill="#E4F0FD"/>
<path d="M32 15H35L30 22L32 15ZM26 15H30L28 23L26 15ZM21 15H24L26 22L21 15ZM31 10H33L35 13H32L31 10ZM27 10H29L30 13H26L27 10ZM23 10H25L24 13H21L23 10ZM22 8L18 14L28 28L38 14L34 8H22Z" fill="#131313"/>
<rect x="1" y="1" width="53" height="33" rx="1" stroke="#131313" stroke-width="2"/>
<path d="M1 11.6265C1.79032 11.8693 2.62972 12 3.49965 12C8.19407 12 11.9996 8.19442 11.9996 3.5C11.9996 2.62995 11.8689 1.79042 11.626 1H9.50148C9.82242 1.76959 9.99965 2.6141 9.99965 3.5C9.99965 7.08985 7.0895 10 3.49965 10C2.61388 10 1.7695 9.82283 1 9.50198V11.6265Z" fill="#131313"/>
<path d="M54 11.6265C53.2097 11.8693 52.3703 12 51.5004 12C46.8059 12 43.0004 8.19442 43.0004 3.5C43.0004 2.62995 43.1311 1.79042 43.374 1H45.4985C45.1776 1.76959 45.0004 2.6141 45.0004 3.5C45.0004 7.08985 47.9105 10 51.5004 10C52.3861 10 53.2305 9.82283 54 9.50198V11.6265Z" fill="#131313"/>
<path d="M1 23.3735C1.79032 23.1307 2.62972 23 3.49965 23C8.19407 23 11.9996 26.8056 11.9996 31.5C11.9996 32.3701 11.8689 33.2096 11.626 34H9.50148C9.82242 33.2304 9.99965 32.3859 9.99965 31.5C9.99965 27.9101 7.0895 25 3.49965 25C2.61388 25 1.7695 25.1772 1 25.498V23.3735Z" fill="#131313"/>
<path d="M54 23.3735C53.2097 23.1307 52.3703 23 51.5004 23C46.8059 23 43.0004 26.8056 43.0004 31.5C43.0004 32.3701 43.1311 33.2096 43.374 34H45.4985C45.1776 33.2304 45.0004 32.3859 45.0004 31.5C45.0004 27.9101 47.9105 25 51.5004 25C52.3861 25 53.2305 25.1772 54 25.498V23.3735Z" fill="#131313"/>
</svg>
